<svg xmlns="http://www.w3.org/2000/svg" viewBox="0 0 501.25 492.25"><defs><style>.cls-1{fill:#d61d23;stroke:#d4006f;stroke-miterlimit:10;stroke-width:0.25px;}.cls-2{fill:#fff;}</style></defs><title>Bez názvu-4</title><g id="Vrstva_2" data-name="Vrstva 2"><ellipse class="cls-1" cx="250.63" cy="246.13" rx="250.5" ry="246"/></g><g id="Vrstva_3" data-name="Vrstva 3"><path class="cls-2" d="M90.42,214.83q-9.5-7.56-9.5-18,0-26.71,65.21-49.88t139.81-23.17q114.91,0,114.91,50.84,0,24.62-24.67,41.91t-86.06,36q55.37,87.69,95.45,87.69,21.08,0,45.18-20.6a24.34,24.34,0,0,1,1.16,5.63q0,13.52-22.94,28.08t-44.25,14.56q-54.21,0-115.6-102.65a116.31,116.31,0,0,1-22.24,2.41,30.42,30.42,0,0,1-9-1.29q8.57-30.41,43.55-30.41a94.92,94.92,0,0,1,17.14,1.93q76-17.7,76-58.73,0-15.12-21.66-24.86t-55.25-9.73A309.72,309.72,0,0,0,168,164.23Q115.44,183.94,90.42,214.83Zm83.4,168.62q-23.63,8.2-42.86,8.21-12,0-12-6.76,0-3.54,5.33-20.11L168.72,209q3.94-13.52,3.94-19.47,0-5.63-5.56-10.3,30.81-8,42.86-8,14.59,0,14.6,11.58,0,2.74-7.65,28.16l-41,143q-4.4,15-4.4,21.08A20.79,20.79,0,0,0,173.82,383.45Z" transform="translate(-6.38 -8.38)"/></g></svg>